<svg aria-hidden="true" style="width:0;height:0;position:absolute;overflow:hidden" xmlns="http://www.w3.org/2000/svg"><defs><symbol id="icon-youtube" viewBox="0 0 32 32"><path d="M25.637 4.245H6.364c-3.509 0-6.363 2.864-6.363 6.383v10.743c0 3.52 2.855 6.383 6.363 6.383h19.273c3.509 0 6.363-2.864 6.363-6.383V10.628c0-3.519-2.855-6.383-6.363-6.383zm5.057 17.127c0 2.8-2.269 5.077-5.057 5.077H6.364c-2.789 0-5.057-2.278-5.057-5.077V10.628c0-2.799 2.269-5.077 5.057-5.077h19.273c2.789 0 5.057 2.278 5.057 5.077v10.744z"/><path d="m21.786 15.764-9.048-5.3a.654.654 0 0 0-.983.564v10.599a.653.653 0 0 0 .983.564l9.048-5.298a.654.654 0 0 0 0-1.128zm-8.725 4.723v-8.32l7.103 4.161-7.103 4.159z"/></symbol><symbol id="icon-arrow-left" viewBox="0 0 32 32"><path d="M22.667 14.667h-10.12l4.4-4.387a1.339 1.339 0 0 0-1.894-1.894l-6.667 6.667a1.328 1.328 0 0 0-.277.431l-.003.009a1.333 1.333 0 0 0 .003 1.022l-.003-.009c.067.171.162.317.28.44l6.667 6.667a1.333 1.333 0 0 0 1.894 0 1.333 1.333 0 0 0 0-1.894l-4.4-4.387h10.12a1.333 1.333 0 0 0 0-2.666z"/></symbol><symbol id="icon-arrow-right" viewBox="0 0 32 32"><path d="M23.893 15.493a1.33 1.33 0 0 0-.28-.44l-6.667-6.667a1.339 1.339 0 0 0-1.894 1.894l4.4 4.387H9.332a1.333 1.333 0 0 0 0 2.666h10.12l-4.4 4.387a1.333 1.333 0 0 0 0 1.894 1.333 1.333 0 0 0 1.894 0l6.667-6.667c.118-.123.213-.269.277-.431l.003-.009a1.333 1.333 0 0 0-.003-1.022l.003.009z"/></symbol><symbol id="icon-close" viewBox="0 0 32 32"><path d="m8 8 14 14M8 22 22 8" stroke-width="2"/></symbol><symbol id="icon-heart" viewBox="0 0 32 32"><path fill="#ff6b08" style="fill:var(--color1,#ff6b08)" d="m16 30.583-2.24-2.24C5.44 20.983 0 16.023 0 9.943c0-4.96 3.84-8.8 8.8-8.8 2.72 0 5.44 1.28 7.2 3.36 1.76-2.08 4.48-3.36 7.2-3.36 4.96 0 8.8 3.84 8.8 8.8 0 6.08-5.44 11.04-13.76 18.4L16 30.583z"/></symbol><symbol id="icon-logo" viewBox="0 0 32 32"><path fill="none" stroke="#fff" stroke-width="2.667" stroke-linecap="round" stroke-linejoin="round" style="stroke:var(--color2,#fff)" d="M26.427 2.667H5.574a2.907 2.907 0 0 0-2.907 2.907v20.853a2.907 2.907 0 0 0 2.907 2.907h20.853a2.907 2.907 0 0 0 2.907-2.907V5.574a2.907 2.907 0 0 0-2.907-2.907zM9.333 2.667v26.667M22.667 2.667v26.667M2.667 16h26.667M2.667 9.333h6.667M2.667 22.667h6.667M22.667 22.667h6.667M22.667 9.333h6.667"/></symbol><symbol id="icon-search" viewBox="0 0 32 32"><path fill="none" stroke="#fff" stroke-width="2.667" stroke-linecap="round" stroke-linejoin="round" style="stroke:var(--color2,#fff)" d="M14.667 25.333c5.891 0 10.667-4.776 10.667-10.667S20.558 3.999 14.667 3.999 4 8.775 4 14.666s4.776 10.667 10.667 10.667zM28 28.001l-5.8-5.8"/></symbol><symbol id="heart" viewBox="0 0 34 32"><path fill="#ff6b08" style="fill:var(--color1,#ff6b08)" d="m17.231 31.705-2.412-2.412C5.859 21.367.001 16.025.001 9.478.001 4.136 4.136.001 9.478.001c2.929 0 5.858 1.378 7.754 3.618 1.895-2.24 4.825-3.618 7.754-3.618 5.342 0 9.477 4.135 9.477 9.477 0 6.548-5.858 11.889-14.818 19.815l-2.412 2.412z"/></symbol><symbol id="icon-sun" viewBox="0 0 32 32"><path fill="#9f1a27" d="M16 9c-3.859 0-7 3.141-7 7s3.141 7 7 7 7-3.141 7-7-3.141-7-7-7zm0 12c-2.762 0-5-2.238-5-5s2.238-5 5-5 5 2.238 5 5-2.238 5-5 5zm0-14a1 1 0 0 0 1-1V4a1 1 0 0 0-2 0v2a1 1 0 0 0 1 1zm0 18a1 1 0 0 0-1 1v2a1 1 0 0 0 2 0v-2a1 1 0 0 0-1-1zm7.777-15.365 1.414-1.414a.999.999 0 1 0-1.414-1.414l-1.414 1.414a.999.999 0 1 0 1.414 1.414zM8.223 22.365l-1.414 1.414a.999.999 0 1 0 1.414 1.414l1.414-1.414a.999.999 0 1 0-1.414-1.414zM7 16a1 1 0 0 0-1-1H4a1 1 0 0 0 0 2h2a1 1 0 0 0 1-1zm21-1h-2a1 1 0 0 0 0 2h2a1 1 0 0 0 0-2zM8.221 9.635a.999.999 0 1 0 1.414-1.414L8.221 6.807a.999.999 0 1 0-1.414 1.414l1.414 1.414zm15.558 12.728a.999.999 0 1 0-1.414 1.414l1.414 1.414a.999.999 0 1 0 1.414-1.414l-1.414-1.414z"/></symbol><symbol id="icon-moon" viewBox="0 0 32 32"><path fill="#9f1a27" d="M24.633 22.184c-8.188 0-14.82-6.637-14.82-14.82 0-2.695.773-5.188 2.031-7.363C5.02 1.969 0 8.188 0 15.645 0 24.676 7.32 32 16.352 32c7.457 0 13.68-5.023 15.648-11.844-2.18 1.254-4.672 2.028-7.367 2.028z"/></symbol><symbol id="circle-up" viewBox="0 0 32 32"><path d="M0 16c0 8.837 7.163 16 16 16s16-7.163 16-16S24.837 0 16 0 0 7.163 0 16zm29 0c0 7.18-5.82 13-13 13S3 23.18 3 16 8.82 3 16 3s13 5.82 13 13z"/><path d="m22.086 20.914 2.829-2.829-8.914-8.914-8.914 8.914 2.828 2.828 6.086-6.086z"/></symbol></defs></svg>